<?xml version="1.0" encoding="UTF-8"?>
<svg id="Capa_1" data-name="Capa 1" xmlns="http://www.w3.org/2000/svg" viewBox="0 0 465 465">
  <defs>
    <style>
      .cls-1 {
        fill: #fff;
      }
    </style>
  </defs>
  <path class="cls-1" d="M240,356.07v-223.95c0-4.14-3.36-7.5-7.5-7.5s-7.5,3.36-7.5,7.5v223.95c0,4.14,3.36,7.5,7.5,7.5s7.5-3.36,7.5-7.5Z"/>
  <path class="cls-1" d="M457.5,75.78c-15.86,0-35.61-6.84-56.53-14.08-26.49-9.17-56.52-19.57-87.66-19.57-36.04,0-58.02,15.79-70.11,29.04-4.52,4.96-8.03,9.92-10.69,14.33-2.66-4.4-6.16-9.37-10.69-14.33-12.1-13.25-34.08-29.04-70.11-29.04-31.14,0-61.17,10.4-87.66,19.57-20.92,7.24-40.68,14.08-56.54,14.08-4.14,0-7.5,3.36-7.5,7.5v302.09c0,4.14,3.36,7.5,7.5,7.5,18.38,0,39.3-7.24,61.44-14.91,25.38-8.79,54.14-18.74,82.75-18.74,24.54,0,44.4,8.13,59.04,24.15,2.79,3.06,7.54,3.27,10.6.48s3.27-7.54.48-10.6c-12.1-13.25-34.08-29.04-70.11-29.04-31.14,0-61.17,10.4-87.66,19.57-17.73,6.14-34.64,11.99-49.03,13.63V90.41c16.49-1.57,34.76-7.9,53.94-14.54,25.38-8.79,54.14-18.75,82.75-18.75,57.88,0,73.03,45.96,73.63,47.89.97,3.15,3.88,5.3,7.17,5.3s6.2-2.15,7.17-5.3c.15-.48,15.38-47.89,73.63-47.89,28.62,0,57.38,9.96,82.76,18.74,19.19,6.64,37.45,12.97,53.94,14.54v287.01c-14.4-1.64-31.3-7.49-49.03-13.63-26.49-9.17-56.52-19.57-87.66-19.57-36.04,0-58.02,15.79-70.11,29.04-2.79,3.06-2.58,7.8.48,10.6,3.06,2.79,7.8,2.58,10.6-.48,14.64-16.03,34.5-24.15,59.04-24.15,28.62,0,57.38,9.96,82.76,18.74,22.14,7.67,43.06,14.91,61.44,14.91,4.14,0,7.5-3.36,7.5-7.5V83.28c0-4.14-3.36-7.5-7.5-7.5Z"/>
  <path class="cls-1" d="M457.5,407.87c-15.86,0-35.61-6.84-56.53-14.08-26.49-9.17-56.52-19.57-87.66-19.57-33.84,0-55.29,13.93-67.8,26.6h-26.02c-12.51-12.67-33.95-26.6-67.79-26.6-31.14,0-61.17,10.4-87.66,19.57-20.92,7.24-40.68,14.08-56.53,14.08C3.36,407.87,0,411.23,0,415.37s3.36,7.5,7.5,7.5c18.38,0,39.3-7.24,61.44-14.91,25.38-8.79,54.14-18.74,82.75-18.74,24.54,0,44.4,8.13,59.04,24.15,1.42,1.56,3.43,2.44,5.54,2.44h32.45c2.11,0,4.12-.89,5.54-2.44,14.63-16.03,34.5-24.15,59.04-24.15,28.62,0,57.38,9.96,82.76,18.74,22.14,7.67,43.06,14.91,61.44,14.91,4.14,0,7.5-3.36,7.5-7.5s-3.36-7.5-7.5-7.5Z"/>
</svg>